<?xml version="1.0" standalone="no"?>
<!DOCTYPE svg PUBLIC "-//W3C//DTD SVG 20010904//EN"
 "http://www.w3.org/TR/2001/REC-SVG-20010904/DTD/svg10.dtd">
<svg version="1.0" xmlns="http://www.w3.org/2000/svg"
 width="500.000000pt" height="400.000000pt" viewBox="0 0 500.000000 400.000000"
 preserveAspectRatio="xMidYMid meet">
<metadata>
Created by potrace 1.15, written by Peter Selinger 2001-2017
</metadata>
<g transform="translate(0.000000,400.000000) scale(0.100000,-0.100000)"
fill="#000000" stroke="none">
<path d="M3480 3764 c0 -6 5 -24 10 -41 12 -34 9 -41 -80 -211 -33 -62 -84
-145 -114 -185 -194 -261 -514 -425 -757 -388 -91 14 -162 37 -211 68 -21 12
-41 23 -45 23 -5 0 -60 40 -123 90 -77 60 -156 110 -240 153 -204 103 -318
135 -525 143 -203 9 -338 -16 -366 -68 -6 -11 -17 -104 -25 -206 -25 -341 -35
-465 -55 -662 -31 -319 -48 -481 -58 -550 -6 -36 -13 -96 -16 -135 -4 -38 -15
-123 -26 -188 l-20 -118 36 -64 37 -65 -12 -87 c-6 -49 -15 -119 -20 -158 -6
-38 -17 -122 -25 -185 -8 -63 -19 -151 -25 -195 -6 -44 -17 -134 -25 -200 -27
-224 -33 -267 -39 -272 -7 -7 19 -33 33 -33 6 0 11 -4 11 -10 0 -5 8 -10 18
-10 9 0 30 -7 46 -15 17 -9 33 -12 38 -7 5 5 22 134 38 288 16 153 37 324 46
379 8 55 19 143 24 195 12 145 31 292 41 317 12 33 16 33 319 -17 371 -62 559
-136 790 -309 120 -91 226 -160 299 -196 86 -42 326 -140 419 -171 162 -54
404 -103 577 -118 197 -18 225 -24 310 -70 100 -54 160 -71 338 -92 135 -16
220 -13 233 8 12 19 6 69 -10 87 -11 12 -46 21 -113 30 -182 23 -257 45 -372
111 -29 17 -90 40 -135 50 -102 24 -128 49 -124 119 3 42 5 46 31 49 18 2 52
-10 95 -33 131 -72 150 -77 327 -76 91 1 163 5 169 11 6 6 18 10 28 10 15 0
18 8 18 48 0 26 -4 53 -8 59 -5 9 -62 16 -173 23 -171 10 -212 19 -289 64 -25
14 -76 33 -115 41 -92 21 -104 32 -112 93 -5 45 -3 51 17 62 23 12 17 15 168
-64 84 -44 176 -66 322 -77 166 -13 193 -7 184 43 -4 18 -12 38 -18 45 -6 6
-58 17 -116 23 -116 13 -203 32 -246 55 -16 8 -33 15 -39 15 -5 0 -37 16 -69
36 -32 19 -90 45 -128 57 -80 25 -108 47 -108 85 0 67 42 67 151 1 107 -65
183 -94 300 -114 95 -17 193 -14 231 6 21 11 25 67 6 91 -14 17 -108 38 -169
38 -51 0 -227 59 -325 108 -43 22 -98 43 -121 47 -23 4 -53 15 -67 26 -23 18
-39 70 -29 97 17 44 95 29 227 -43 108 -59 156 -71 304 -80 100 -6 123 -5 150
9 37 19 42 49 14 82 -14 17 -39 23 -142 36 -141 18 -251 52 -325 102 -57 38
-87 50 -167 67 -65 14 -93 37 -83 68 13 42 121 20 233 -48 109 -65 167 -81
302 -81 64 0 131 5 149 11 27 10 31 15 31 48 0 56 -19 66 -155 84 -125 16
-255 54 -315 92 -54 34 -166 72 -260 90 -157 29 -216 50 -458 161 -41 19 -75
34 -77 34 -3 0 -38 21 -80 46 -54 33 -75 51 -75 66 0 17 4 19 28 14 66 -16
357 -18 447 -3 96 16 247 52 280 66 11 5 40 16 65 26 25 9 52 21 60 26 8 5 29
15 46 23 17 7 49 25 72 40 23 14 47 26 53 26 6 0 26 12 44 28 19 15 44 34 56
43 12 8 20 20 18 26 -3 7 -34 -3 -84 -28 -44 -21 -86 -39 -93 -39 -7 0 -20 -4
-30 -10 -24 -13 -297 -86 -352 -94 -25 -4 -101 -11 -170 -16 -320 -23 -570 48
-875 248 -55 36 -102 68 -105 72 -3 3 -19 16 -37 28 -34 24 -138 151 -130 159
12 11 51 -11 129 -74 110 -87 148 -111 243 -148 118 -47 215 -61 323 -46 129
18 168 30 264 76 146 72 298 188 371 285 23 30 52 66 64 79 12 14 28 39 34 55
7 17 25 60 42 96 26 57 29 77 30 165 1 93 0 104 -27 150 -39 68 -56 92 -56 79z"/>
</g>
</svg>
